<svg viewBox="0 0 1451.15 653.44" xmlns="http://www.w3.org/2000/svg"><g fill="#24292e"><path d="m101.96 499.47a1.5 1.5 0 1 1 0-3 18.74 18.74 0 0 0 18.72-18.72 1.5 1.5 0 0 1 3 0 21.75 21.75 0 0 1 -21.72 21.72zm-57.71-224.02h-20.54a1.5 1.5 0 1 1 0-3h20.54a17.3 17.3 0 0 0 17.28-17.28v-64.24a20.3 20.3 0 0 1 20.28-20.28h25.63a17.3 17.3 0 0 0 17.28-17.28v-150.21a1.5 1.5 0 0 1 3 0v150.23a20.3 20.3 0 0 1 -20.28 20.28h-25.64a17.3 17.3 0 0 0 -17.28 17.28v64.24a20.3 20.3 0 0 1 -20.27 20.26zm179.4-183.19h-56.28a1.5 1.5 0 1 1 0-3h56.28a1.5 1.5 0 0 1 0 3z"/><path d="m98.74 112.56h-44.13a1.5 1.5 0 0 1 0-3h44.13a1.5 1.5 0 1 1 0 3zm55.81 0h-12.75a1.5 1.5 0 1 1 0-3h12.75a1.5 1.5 0 1 1 0 3zm-103.29-61.13h-43.19a1.5 1.5 0 0 1 -1.5-1.5 1.5 1.5 0 0 1 1.5-1.5h43.19a1.5 1.5 0 1 1 0 3zm38.29 0h-22.18a1.5 1.5 0 1 1 0-3h22.18a1.5 1.5 0 0 1 0 3zm91.14 0h-27.88a1.5 1.5 0 1 1 0-3h27.88a1.5 1.5 0 0 1 0 3zm37.79 0h-19.51a1.5 1.5 0 1 1 0-3h19.51a1.5 1.5 0 0 1 0 3zm91.86 0h-14.27a1.5 1.5 0 1 1 0-3h14.29a1.5 1.5 0 1 1 -.02 3zm50.73 0h-33.68a1.5 1.5 0 1 1 0-3h33.68a1.5 1.5 0 1 1 0 3zm-283.95 20.3h-15.51a1.5 1.5 0 0 1 0-3h15.51a1.5 1.5 0 1 1 0 3zm33.33 81.66h-18.5a1.5 1.5 0 1 1 0-3h18.5a1.5 1.5 0 0 1 0 3zm-22.07 20.3h-52.69a1.5 1.5 0 1 1 0-3h52.69a1.5 1.5 0 0 1 0 3zm17.88-40.83h-15.19a1.5 1.5 0 0 1 0-3h15.19a1.5 1.5 0 0 1 0 3zm-60.62 101.99h-38.57a1.5 1.5 0 0 1 -1.5-1.5 1.5 1.5 0 0 1 1.5-1.5h38.6a1.5 1.5 0 0 1 -.03 3zm56.03 0h-22a1.5 1.5 0 1 1 0-3h22a1.5 1.5 0 0 1 0 3zm93.48 0h-16.83a1.5 1.5 0 0 1 0-3h16.83a1.5 1.5 0 0 1 0 3zm55.56 0h-38.83a1.5 1.5 0 1 1 0-3h38.82a1.5 1.5 0 1 1 .01 3zm-85.04 20.3h-23.32a1.5 1.5 0 0 1 0-3h23.32a1.5 1.5 0 0 1 0 3zm-37.76-61.13h-15.73a1.5 1.5 0 1 1 0-3h15.73a1.5 1.5 0 1 1 0 3zm63.72 0h-45.33a1.5 1.5 0 0 1 0-3h45.33a1.5 1.5 0 1 1 0 3zm38.13 0h-23.46a1.5 1.5 0 0 1 0-3h23.46a1.5 1.5 0 1 1 0 3zm-91.6 20.3h-58.54a1.5 1.5 0 1 1 0-3h58.54a1.5 1.5 0 1 1 0 3zm72.13 0h-42.85a1.5 1.5 0 1 1 0-3h42.85a1.5 1.5 0 0 1 0 3zm71.49 0h-56.38a1.5 1.5 0 0 1 0-3h56.37a1.5 1.5 0 1 1 .01 3zm-245.92 0h-21.28a1.5 1.5 0 0 1 0-3h21.28a1.5 1.5 0 1 1 0 3zm38.68 81.66h-36.17a1.5 1.5 0 0 1 0-3h36.17a1.5 1.5 0 0 1 0 3zm46.53 0h-30.77a1.5 1.5 0 0 1 0-3h30.77a1.5 1.5 0 1 1 0 3zm97.67 0h-35.08a1.5 1.5 0 0 1 0-3h35.08a1.5 1.5 0 1 1 0 3zm-124.06-20.53h-23.83a1.5 1.5 0 1 1 0-3h23.83a1.5 1.5 0 0 1 0 3zm22.64 0h-11a1.5 1.5 0 0 1 0-3h11a1.5 1.5 0 0 1 0 3zm13.19 101.96h-26.8a1.5 1.5 0 0 1 0-3h26.81a1.5 1.5 0 0 1 -.01 3zm31.31 20.3h-8.86a1.5 1.5 0 1 1 0-3h8.86a1.5 1.5 0 0 1 0 3zm-108.18-61.13h-45.57a1.5 1.5 0 0 1 -1.5-1.5 1.5 1.5 0 0 1 1.5-1.5h45.6a1.5 1.5 0 1 1 -.03 3zm130.43 0h-17.2a1.5 1.5 0 0 1 0-3h17.2a1.5 1.5 0 1 1 0 3zm-105.61 20.3h-20.39a1.5 1.5 0 1 1 0-3h20.39a1.5 1.5 0 1 1 0 3zm52.05 0h-37.86a1.5 1.5 0 1 1 0-3h37.86a1.5 1.5 0 0 1 0 3zm51.22 0h-24.27a1.5 1.5 0 1 1 0-3h24.27a1.5 1.5 0 0 1 0 3zm18.53 0h-9a1.5 1.5 0 0 1 0-3h9a1.5 1.5 0 1 1 0 3zm-80.45 81.66h-40.23a1.5 1.5 0 0 1 0-3h40.23a1.5 1.5 0 0 1 0 3zm-57.4-.11h-38a1.5 1.5 0 0 1 0-3h38a1.5 1.5 0 0 1 0 3zm7.93 20.41h-11.64a1.5 1.5 0 0 1 0-3h11.64a1.5 1.5 0 1 1 0 3zm135.96 0h-23.06a1.5 1.5 0 0 1 0-3h23.07a1.5 1.5 0 0 1 -.01 3zm-125.32-40.83h-16.25a1.5 1.5 0 0 1 0-3h16.25a1.5 1.5 0 1 1 0 3zm23.66 0h-8.76a1.5 1.5 0 1 1 0-3h8.76a1.5 1.5 0 0 1 0 3zm92.98 235.42a1.5 1.5 0 0 1 -1.5-1.5v-13a17.29 17.29 0 0 0 -17.27-17.23l-81.4.08a20.28 20.28 0 0 1 -20.38-20.18l-.19-57v-5.72a18.87 18.87 0 0 0 -18.81-18.88h-30.77a1.5 1.5 0 0 1 0-3h30.77a21.88 21.88 0 0 1 21.85 21.85v5.71l.19 57a17.28 17.28 0 0 0 17.27 17.24l81.4-.08a20.3 20.3 0 0 1 20.29 20.25v13a1.5 1.5 0 0 1 -1.5 1.5zm-84.75-133.43h-28.73a1.5 1.5 0 1 1 0-3h28.73a1.5 1.5 0 0 1 0 3zm78.35 0h-63a1.5 1.5 0 0 1 0-3h63a1.5 1.5 0 1 1 0 3z"/><path d="m64.73 540.3h-13.47a1.5 1.5 0 1 1 0-3h13.47a1.5 1.5 0 1 1 0 3zm85.89-61.13h-40.18a1.5 1.5 0 1 1 0-3h40.18a1.5 1.5 0 0 1 0 3zm-109.65 20.3h-32.9a1.5 1.5 0 0 1 -1.5-1.5 1.5 1.5 0 0 1 1.5-1.5h32.9a1.5 1.5 0 1 1 0 3zm92.1 0h-34.73a1.5 1.5 0 0 1 0-3h34.73a1.5 1.5 0 0 1 0 3zm20.8 0h-6.68a1.5 1.5 0 0 1 0-3h6.68a1.5 1.5 0 0 1 0 3zm4.98 81.62h-32.63a1.5 1.5 0 0 1 0-3h32.63a1.5 1.5 0 0 1 0 3zm26.09 0h-13.54a1.5 1.5 0 1 1 0-3h13.54a1.5 1.5 0 1 1 0 3zm-43.04 20.34h-44.06a1.5 1.5 0 1 1 0-3h44.06a1.5 1.5 0 1 1 0 3zm-107.28-40.83h-33.12a1.5 1.5 0 0 1 -1.5-1.5 1.5 1.5 0 0 1 1.5-1.5h33.12a1.5 1.5 0 0 1 0 3zm96.45 0h-19.61a1.5 1.5 0 0 1 0-3h19.61a1.5 1.5 0 1 1 0 3zm35.82 0h-22.11a1.5 1.5 0 1 1 0-3h22.11a1.5 1.5 0 1 1 0 3zm201.96 40.83h-39.86a1.5 1.5 0 1 1 0-3h39.86a1.5 1.5 0 0 1 0 3zm969.22-509.17h-51.7a1.5 1.5 0 0 1 0-3h51.7a1.5 1.5 0 1 1 0 3zm-63.33 0h-31.33a1.5 1.5 0 0 1 0-3h31.33a1.5 1.5 0 0 1 0 3zm-79.75 0h-28.34a1.5 1.5 0 0 1 0-3h28.34a1.5 1.5 0 0 1 0 3zm250.99 0h-24.91a1.5 1.5 0 0 1 0-3h24.94a1.5 1.5 0 1 1 -.03 3zm-157.91 20.3h-15.6a1.5 1.5 0 0 1 0-3h15.6a1.5 1.5 0 0 1 0 3zm86.57-61.13h-63.57a1.5 1.5 0 0 1 0-3h63.58a1.5 1.5 0 0 1 -.01 3zm-179.31 0h-15.44a1.5 1.5 0 1 1 0-3h15.44a1.5 1.5 0 1 1 0 3zm-28.69 0h-96.75a1.5 1.5 0 1 1 0-3h96.75a1.5 1.5 0 0 1 0 3zm234.01 0h-12.89a1.5 1.5 0 0 1 0-3h12.89a1.5 1.5 0 0 1 0 3zm-261.33 20.3h-22.25a1.5 1.5 0 1 1 0-3h22.27a1.5 1.5 0 0 1 -.02 3zm212.84 0h-29.09a1.5 1.5 0 0 1 0-3h29.09a1.5 1.5 0 0 1 0 3zm-29.68-40.64h-30.62a1.5 1.5 0 1 1 0-3h30.62a1.5 1.5 0 1 1 0 3zm-172.58 0h-37.33a1.5 1.5 0 1 1 0-3h37.32a1.5 1.5 0 0 1 .01 3zm-54.83 0h-114a1.5 1.5 0 0 1 0-3h114a1.5 1.5 0 1 1 0 3zm-696.29 0h-78.71a1.5 1.5 0 1 1 0-3h78.74a1.5 1.5 0 1 1 -.03 3zm55.72 0h-41.81a1.5 1.5 0 0 1 0-3h41.81a1.5 1.5 0 1 1 0 3zm877.64 122.3h-9.07a1.5 1.5 0 1 1 0-3h9.07a1.5 1.5 0 0 1 0 3zm51.85 0h-35.28a1.5 1.5 0 0 1 0-3h35.28a1.5 1.5 0 0 1 0 3zm-93.54 20.3h-23.81a1.5 1.5 0 0 1 0-3h23.81a1.5 1.5 0 0 1 0 3zm127.97 0h-34.26a1.5 1.5 0 0 1 0-3h34.26a1.5 1.5 0 1 1 0 3zm-40.68-40.83h-18.43a1.5 1.5 0 0 1 0-3h18.43a1.5 1.5 0 0 1 0 3zm-118.25 101.99h-12.42a1.5 1.5 0 0 1 0-3h12.42a1.5 1.5 0 0 1 0 3zm37.34 0h-24.17a1.5 1.5 0 0 1 0-3h24.17a1.5 1.5 0 0 1 0 3zm40.49 0h-14.25a1.5 1.5 0 1 1 0-3h14.25a1.5 1.5 0 0 1 0 3zm52.33 0h-37.49a1.5 1.5 0 0 1 0-3h37.49a1.5 1.5 0 1 1 0 3zm55.36 0h-20.13a1.5 1.5 0 0 1 0-3h20.13a1.5 1.5 0 1 1 0 3zm-43.44-40.83h-42.27a1.5 1.5 0 0 1 0-3h42.27a1.5 1.5 0 1 1 0 3zm-50.41 20.3h-28.68a1.5 1.5 0 1 1 0-3h28.68a1.5 1.5 0 0 1 0 3zm26.58 0h-10.55a1.5 1.5 0 0 1 0-3h10.55a1.5 1.5 0 0 1 0 3zm-97.56 82.04h-27.11a1.5 1.5 0 1 1 0-3h27.08a1.5 1.5 0 0 1 .03 3zm42.3 0h-26.22a1.5 1.5 0 1 1 0-3h26.22a1.5 1.5 0 1 1 0 3zm67.17 0h-49.43a1.5 1.5 0 1 1 0-3h49.43a1.5 1.5 0 0 1 0 3zm-126.94 19.92h-29a1.5 1.5 0 0 1 0-3h29a1.5 1.5 0 0 1 0 3zm179.83 20.26h-24.22a1.5 1.5 0 0 1 0-3h24.22a1.5 1.5 0 0 1 0 3zm-137.22-61.09h-15.25a1.5 1.5 0 0 1 0-3h15.2a1.5 1.5 0 0 1 .05 3zm45.18 0h-28.87a1.5 1.5 0 0 1 0-3h28.87a1.5 1.5 0 0 1 0 3zm97.31 0h-29.5a1.5 1.5 0 0 1 0-3h29.5a1.5 1.5 0 0 1 0 3zm-108.24 101.96h-42.4a1.5 1.5 0 0 1 0-3h42.4a1.5 1.5 0 0 1 0 3zm35.21 0h-20.71a1.5 1.5 0 0 1 0-3h20.68a1.5 1.5 0 1 1 .03 3zm66.35 20.3h-22.82a1.5 1.5 0 0 1 0-3h22.82a1.5 1.5 0 0 1 0 3zm-52.48-61.13h-30.35a1.5 1.5 0 0 1 0-3h30.35a1.5 1.5 0 0 1 0 3zm-68 20.3h-9.19a1.5 1.5 0 0 1 0-3h9.19a1.5 1.5 0 0 1 0 3zm33.42 0h-21.12a1.5 1.5 0 1 1 0-3h21.12a1.5 1.5 0 0 1 0 3zm88.22 0h-23.87a1.5 1.5 0 1 1 0-3h23.87a1.5 1.5 0 0 1 0 3zm-53.34 81.66h-51.34a1.5 1.5 0 0 1 0-3h51.34a1.5 1.5 0 1 1 0 3zm4.52 20.3h-27.12a1.5 1.5 0 1 1 0-3h27.12a1.5 1.5 0 0 1 0 3zm-41.56-40.83h-41.84a1.5 1.5 0 0 1 0-3h41.84a1.5 1.5 0 1 1 0 3zm37.04 0h-12.64a1.5 1.5 0 1 1 0-3h12.64a1.5 1.5 0 0 1 0 3zm-68.2 101.99h-46a1.5 1.5 0 1 1 0-3h46a1.5 1.5 0 0 1 0 3zm71.25 0h-57.61a1.5 1.5 0 0 1 0-3h57.61a1.5 1.5 0 1 1 0 3zm-114.7 20.3h-56.59a1.5 1.5 0 1 1 0-3h56.59a1.5 1.5 0 1 1 0 3zm45.41 0h-29.64a1.5 1.5 0 1 1 0-3h29.62a1.5 1.5 0 1 1 .02 3zm-23.22-61.13h-14.12a1.5 1.5 0 1 1 0-3h14.12a1.5 1.5 0 0 1 0 3zm144.41 0h-22.83a1.5 1.5 0 1 1 0-3h22.86a1.5 1.5 0 0 1 -.03 3zm-119.22 20.3h-33.55a1.5 1.5 0 0 1 0-3h33.55a1.5 1.5 0 0 1 0 3zm34.62 0h-14.33a1.5 1.5 0 0 1 0-3h14.33a1.5 1.5 0 0 1 0 3zm-150.71 101.96h-16.52a1.5 1.5 0 0 1 0-3h16.5a1.5 1.5 0 1 1 .02 3zm198.77 0h-35.58a1.5 1.5 0 1 1 0-3h35.58a1.5 1.5 0 1 1 0 3zm34.06 0h-19.19a1.5 1.5 0 0 1 0-3h19.19a1.5 1.5 0 1 1 0 3zm-85.78 20.3h-13.44a1.5 1.5 0 1 1 0-3h13.44a1.5 1.5 0 1 1 0 3zm-29.25 0h-26a1.5 1.5 0 1 1 0-3h26a1.5 1.5 0 1 1 0 3zm-176.18 0h-21.79a1.5 1.5 0 1 1 0-3h21.79a1.5 1.5 0 0 1 0 3zm-33.14 0h-63a1.5 1.5 0 1 1 0-3h63a1.5 1.5 0 1 1 0 3zm100.78 0h-50.52a1.5 1.5 0 1 1 0-3h50.52a1.5 1.5 0 1 1 0 3zm168.47 20.31h-65.94a1.5 1.5 0 1 1 0-3h65.94a1.5 1.5 0 0 1 0 3zm-200.75 0h-36.65a1.5 1.5 0 1 1 0-3h36.65a1.5 1.5 0 0 1 0 3zm-107.42 0h-18.87a1.5 1.5 0 1 1 0-3h18.87a1.5 1.5 0 1 1 0 3zm-31.92 0h-67.87a1.5 1.5 0 1 1 0-3h67.88a1.5 1.5 0 1 1 -.01 3zm-723.98-20.31h-16.67a1.5 1.5 0 1 1 0-3h16.66a1.5 1.5 0 0 1 .01 3zm-257.73 0h-19.83a1.5 1.5 0 1 1 0-3h19.83a1.5 1.5 0 1 1 0 3zm287.62 0h-17.81a1.5 1.5 0 1 1 0-3h17.81a1.5 1.5 0 0 1 0 3zm.78 20.31h-65.94a1.5 1.5 0 0 1 0-3h65.94a1.5 1.5 0 1 1 0 3zm-80.75 0h-60.53a1.5 1.5 0 0 1 0-3h60.53a1.5 1.5 0 0 1 0 3zm-88.46 0h-15.86a1.5 1.5 0 0 1 0-3h15.85a1.5 1.5 0 1 1 .01 3zm-85.87 0h-72a1.5 1.5 0 1 1 0-3h72a1.5 1.5 0 0 1 0 3zm335.75 0h-65.86a1.5 1.5 0 1 1 0-3h65.86a1.5 1.5 0 1 1 0 3zm841.15-81.44h-13.29a1.5 1.5 0 1 1 0-3h13.29a1.5 1.5 0 1 1 0 3zm-1.31 61.13h-30.42a1.5 1.5 0 0 1 0-3h30.42a17.3 17.3 0 0 0 17.28-17.28v-23.58a20.3 20.3 0 0 1 20.28-20.28h131.3a1.5 1.5 0 1 1 0 3h-131.3a17.3 17.3 0 0 0 -17.28 17.28v23.58a20.3 20.3 0 0 1 -20.28 20.28zm-1126.78-549.89a21.94 21.94 0 0 1 -21.93-21.91 1.5 1.5 0 0 1 3 0 18.93 18.93 0 0 0 18.91 18.91h91.84a17.3 17.3 0 0 0 17.28-17.28v-50a1.5 1.5 0 0 1 3 0v50a20.3 20.3 0 0 1 -20.28 20.28h-87.45z"/><path d="m190.48 586.14a6.51 6.51 0 1 1 6.51-6.51 6.52 6.52 0 0 1 -6.51 6.51zm0-10a3.51 3.51 0 1 0 3.51 3.51 3.51 3.51 0 0 0 -3.51-3.56zm-134.06-173.42a6.51 6.51 0 1 1 6.51-6.51 6.52 6.52 0 0 1 -6.51 6.51zm0-10a3.51 3.51 0 1 0 3.51 3.51 3.51 3.51 0 0 0 -3.51-3.52zm86.75-173.39a6.51 6.51 0 1 1 6.51-6.51 6.52 6.52 0 0 1 -6.51 6.51zm0-10a3.51 3.51 0 1 0 3.51 3.51 3.51 3.51 0 0 0 -3.51-3.53zm-38.69 86.56a1.5 1.5 0 0 1 -1.06-.44l-20.4-20.36a1.5 1.5 0 0 1 2.12-2.12l20.4 20.4a1.5 1.5 0 0 1 -1.06 2.52zm237.05-244.67a1.5 1.5 0 0 1 -1.06-2.56l20.1-20.1a1.5 1.5 0 0 1 2.12 2.12l-20.1 20.1a1.5 1.5 0 0 1 -1.06.44zm1016.77 244.45a1.5 1.5 0 0 1 -1.06-.44l-20.17-20.22a1.5 1.5 0 0 1 2.12-2.12l20.22 20.22a1.5 1.5 0 0 1 -1.11 2.56zm-41.85-203.72a1.5 1.5 0 0 1 -1.06-2.56l20.22-20.22a1.5 1.5 0 0 1 2.12 2.12l-20.22 20.22a1.5 1.5 0 0 1 -1.06.44zm-23.58 427.89a1.5 1.5 0 0 1 -1.06-2.56l20.26-20.19a1.5 1.5 0 0 1 2.12 2.12l-20.22 20.22a1.5 1.5 0 0 1 -1.1.41zm-1171 81.51a1.5 1.5 0 0 1 -1.06-2.56l20.26-20.22a1.5 1.5 0 1 1 2.12 2.12l-20.22 20.22a1.5 1.5 0 0 1 -1.1.44z"/><path d="m123.45 397.71h-62a1.5 1.5 0 0 1 0-3h62a17 17 0 0 0 17.19-17.11l.22-44.1a20.28 20.28 0 0 1 20.27-20.22h16.87a18.85 18.85 0 0 0 18.85-18.8 1.5 1.5 0 0 1 3 0 21.85 21.85 0 0 1 -21.85 21.8h-16.86a17.28 17.28 0 0 0 -17.28 17.24l-.22 44.09a20.17 20.17 0 0 1 -20.19 20.1zm-21.31 101.76a1.5 1.5 0 1 1 0-3 18.67 18.67 0 0 0 18.58-18.72 1.5 1.5 0 0 1 3 0 21.68 21.68 0 0 1 -21.58 21.72zm212.93-463.38a6.51 6.51 0 1 1 6.51-6.51 6.52 6.52 0 0 1 -6.51 6.51zm0-10a3.51 3.51 0 1 0 3.51 3.51 3.51 3.51 0 0 0 -3.51-3.51zm1067.68 111.78a6.51 6.51 0 1 1 6.51-6.51 6.52 6.52 0 0 1 -6.51 6.51zm0-10a3.51 3.51 0 1 0 3.51 3.51 3.51 3.51 0 0 0 -3.51-3.53zm-11.47 295.15a6.51 6.51 0 1 1 6.51-6.51 6.51 6.51 0 0 1 -6.51 6.51zm0-10a3.51 3.51 0 1 0 3.51 3.51 3.51 3.51 0 0 0 -3.51-3.52zm-133.44 213.72a6.51 6.51 0 1 1 6.51-6.51 6.52 6.52 0 0 1 -6.51 6.51zm0-10a3.51 3.51 0 1 0 3.51 3.51 3.51 3.51 0 0 0 -3.51-3.52zm136.23-422.72a1.5 1.5 0 0 1 0-3 18.74 18.74 0 0 0 18.72-18.72 1.5 1.5 0 0 1 3 0 21.75 21.75 0 0 1 -21.72 21.72zm-245-122.34a1.5 1.5 0 0 1 -1.5-1.5 21.77 21.77 0 0 1 21.75-21.75 1.5 1.5 0 1 1 0 3 18.77 18.77 0 0 0 -18.75 18.75 1.5 1.5 0 0 1 -1.5 1.5zm201.79-21.82a1.5 1.5 0 0 1 -1.5-1.5 20.28 20.28 0 0 1 20.27-20.23h94a1.5 1.5 0 0 1 0 3h-94a17.28 17.28 0 0 0 -17.32 17.24 1.5 1.5 0 0 1 -1.45 1.49zm111.68 408.98h-20.47a20.3 20.3 0 0 1 -20.28-20.28v-82.25a1.5 1.5 0 0 1 3 0v82.25a17.3 17.3 0 0 0 17.28 17.28h20.48a1.5 1.5 0 0 1 -.01 3zm-132.33-285.94a1.5 1.5 0 0 1 -1.5-1.5 17.27 17.27 0 0 0 -17.27-17.23l-61.82.08a20.3 20.3 0 0 1 -20.27-20.23l-.28-128.52a1.5 1.5 0 0 1 1.5-1.5 1.5 1.5 0 0 1 1.5 1.5l.19 128.52a17.29 17.29 0 0 0 17.27 17.23l61.82-.08a20.28 20.28 0 0 1 20.27 20.23 1.5 1.5 0 0 1 -1.5 1.5z"/><path d="m1403.28 364.88a1.5 1.5 0 0 1 -1.5-1.5v-91.11a17.29 17.29 0 0 0 -17.28-17.27h-55.64a20.3 20.3 0 0 1 -20.28-20.28v-7.26l.18-97.67a20.28 20.28 0 0 1 20.27-20.23l120.54.08a1.5 1.5 0 0 1 0 3l-120.54-.08a17.28 17.28 0 0 0 -17.28 17.24l-.2 104.93a17.29 17.29 0 0 0 17.28 17.27h55.64a20.3 20.3 0 0 1 20.28 20.27v91.11a1.5 1.5 0 0 1 -1.47 1.5zm-1213.81-150.64a1.5 1.5 0 0 1 -1.5-1.5 18.74 18.74 0 0 0 -18.72-18.72 1.5 1.5 0 0 1 0-3 21.75 21.75 0 0 1 21.72 21.72 1.5 1.5 0 0 1 -1.5 1.5z"/></g></svg>